<?xml version="1.0" encoding="UTF-8" standalone="no"?>
<!-- Created with Inkscape (http://www.inkscape.org/) -->

<svg
   width="210mm"
   height="297mm"
   viewBox="0 0 210 297"
   version="1.1"
   id="svg1"
   xml:space="preserve"
   inkscape:version="1.4.2 (f4327f4, 2025-05-13)"
   sodipodi:docname="logo.svg"
   xmlns:inkscape="http://www.inkscape.org/namespaces/inkscape"
   xmlns:sodipodi="http://sodipodi.sourceforge.net/DTD/sodipodi-0.dtd"
   xmlns:xlink="http://www.w3.org/1999/xlink"
   xmlns="http://www.w3.org/2000/svg"
   xmlns:svg="http://www.w3.org/2000/svg"><sodipodi:namedview
     id="namedview1"
     pagecolor="#ffffff"
     bordercolor="#000000"
     borderopacity="0.25"
     inkscape:showpageshadow="2"
     inkscape:pageopacity="0.0"
     inkscape:pagecheckerboard="0"
     inkscape:deskcolor="#d1d1d1"
     inkscape:document-units="mm"
     inkscape:zoom="0.25417602"
     inkscape:cx="-623.58361"
     inkscape:cy="1457.6513"
     inkscape:window-width="1920"
     inkscape:window-height="1009"
     inkscape:window-x="-8"
     inkscape:window-y="-8"
     inkscape:window-maximized="1"
     inkscape:current-layer="layer1" /><defs
     id="defs1"><linearGradient
       id="linearGradient3"
       inkscape:collect="always"><stop
         style="stop-color:#996e1e;stop-opacity:1;"
         offset="0"
         id="stop3" /><stop
         style="stop-color:#e6c778;stop-opacity:1;"
         offset="1"
         id="stop4" /></linearGradient><linearGradient
       inkscape:collect="always"
       xlink:href="#linearGradient3"
       id="linearGradient4"
       x1="33.648866"
       y1="200.24288"
       x2="195.86179"
       y2="200.24288"
       gradientUnits="userSpaceOnUse"
       gradientTransform="translate(-258.25061,-131.88094)" /></defs><g
     inkscape:label="Camada 1"
     inkscape:groupmode="layer"
     id="layer1"><path
       style="fill:url(#linearGradient4);fill-opacity:1"
       d="m -224.30219,132.48083 c 6.40763,-1.37278 11.30163,-5.28803 13.01043,-10.40848 0.69837,-2.0927 0.90552,-103.514644 0.21858,-107.023944 -1.00994,-5.1593806 -3.9525,-8.4482006 -9.26498,-10.3552106 l -2.10964,-0.75729 8.68431,-0.0698 c 4.77637,-0.0384 12.51543,-0.0384 17.19792,0 l 8.5136,0.0698 -1.32291,0.64836 c -2.97943,1.46023 -4.78567,4.13127 -5.41462,8.0070506 -0.30395,1.873 -0.39425,61.85604 -0.0931,61.85604 2.06589,0 27.20056,-9.18334 32.73871,-11.9616 21.97664,-11.02476 43.07966,-33.42634 51.51488,-54.6848506 l 1.53361,-3.865 11.40523,-0.069 c 7.63359,-0.0462 11.35058,0.0195 11.23997,0.19843 -0.0909,0.14708 -0.32154,0.26741 -0.51255,0.26741 -1.60683,0 -9.23487,4.17373 -13.13639,7.1876496 -5.37239,4.150171 -7.78688,6.819401 -15.51697,17.154011 -17.52654,23.43184 -29.52937,33.48614 -51.00459,42.72459 -10.07864,4.33574 -18.77148,8.83798 -25.62145,13.27001 l -2.80806,1.81686 0.0596,20.981084 0.0596,20.98109 9.65729,-0.0188 c 13.72972,-0.0267 16.58322,-0.69168 20.58025,-4.79622 3.17674,-3.26219 3.22214,-3.64046 3.22765,-26.894594 0.002,-10.6594 0.071,-19.38073 0.15218,-19.38073 1.04829,0 9.58947,6.36639 12.35398,9.20834 l 2.05051,2.10798 0.005,17.029854 c 0.006,20.5707 0.0514,20.93868 2.95013,23.66376 1.57697,1.48251 2.39755,1.95606 4.85048,2.79919 l 2.11667,0.72755 -44.58229,-0.009 c -40.26038,-0.008 -44.40297,-0.0471 -42.73251,-0.40496 z m 127.79606,0.0358 c -9.62127,-2.12413 -16.34104,-8.15536 -28.43963,-25.52553 -13.75739,-19.751724 -22.46486,-27.686494 -38.10308,-34.721804 l -0.92604,-0.41661 3.30729,-1.59415 c 9.59974,-4.62721 17.16639,-4.71188 28.17811,-0.31535 14.29508,5.70744 24.56876,14.5898 41.627,35.989584 13.63569,17.10616 18.605461,22.07019 25.57021,25.54071 l 2.903461,1.44679 -16.264911,-0.0266 c -12.44377,-0.0203 -16.637869,-0.1089 -17.852409,-0.37705 z m 25.1856,-0.82501 c -0.0937,-0.0937 -0.79812,-0.42674 -1.56545,-0.74018 -6.998149,-2.85852 -14.55871,-9.66233 -28.11361,-25.29964 -20.04461,-23.124014 -30.82672,-31.408094 -44.58676,-34.256804 -1.95738,-0.40523 -8.19447,-0.86145 -7.93749,-0.5806 0.0728,0.0795 1.22376,0.58083 2.55778,1.11402 9.60815,3.84022 17.44477,10.69692 32.51331,28.447734 16.73592,19.71498 28.64699,27.99887 44.511271,30.95663 1.41392,0.26361 2.620369,0.49051 2.680999,0.50422 0.0606,0.0137 0.0336,-0.0517 -0.0601,-0.14538 z m -90.14472,-96.597224 c -0.004,-23.344961 -0.023,-23.723231 -1.30258,-26.2315006 -0.69933,-1.37079 -3.18209,-3.58799 -4.64213,-4.14558 -0.65732,-0.25104 -1.19513,-0.55932 -1.19513,-0.68507 0,-0.12581 6.84212,-0.22863 15.21354,-0.22863 8.36744,0 15.21353,0.0899 15.21353,0.19978 0,0.10988 -0.72468,0.48079 -1.6104,0.82423 -1.93911,0.75191 -4.5708,3.09438 -5.59142,4.97692 -1.42307,2.6248806 -1.52943,4.0070306 -1.52943,19.8750306 0,16.26001 0.0252,16.00843 -1.84674,18.43483 -1.70156,2.20554 -6.7236,5.8585 -11.07172,8.05343 l -1.63361,0.82464 z"
       id="path1"
       inkscape:export-filename="Documents\Contas\public\logo.png"
       inkscape:export-xdpi="96"
       inkscape:export-ydpi="96" /><path
       style="fill:#000000;fill-opacity:1;stroke:none;stroke-opacity:1"
       d="m -224.30218,284.53565 c 6.40763,-1.37278 11.30162,-5.28803 13.01042,-10.40848 0.69838,-2.0927 0.90552,-103.51464 0.21859,-107.02394 -1.00994,-5.15938 -3.9525,-8.4482 -9.26498,-10.35521 l -2.10964,-0.75729 8.68431,-0.0698 c 4.77637,-0.0384 12.51543,-0.0384 17.19791,0 l 8.51361,0.0698 -1.32292,0.64836 c -2.97942,1.46023 -4.78566,4.13127 -5.41462,8.00705 -0.30394,1.873 -0.39424,61.85604 -0.0931,61.85604 2.06589,0 27.20057,-9.18334 32.73871,-11.9616 21.97665,-11.02476 43.07966,-33.42634 51.51488,-54.68485 l 1.53361,-3.865 11.405223,-0.069 c 7.63359,-0.0462 11.35058,0.0195 11.23997,0.19843 -0.0909,0.14708 -0.32154,0.26741 -0.51255,0.26741 -1.60683,0 -9.23487,4.17373 -13.136393,7.18765 -5.37238,4.15017 -7.78687,6.8194 -15.51696,17.15401 -17.52653,23.43184 -29.52936,33.48614 -51.00459,42.72459 -10.07864,4.33574 -18.77147,8.83798 -25.62144,13.27001 l -2.80807,1.81686 0.0596,20.98108 0.0596,20.98109 9.65729,-0.0188 c 13.72973,-0.0267 16.58322,-0.69168 20.58026,-4.79622 3.17674,-3.26219 3.22213,-3.64046 3.22765,-26.89459 0.002,-10.6594 0.071,-19.38073 0.15217,-19.38073 1.04829,0 9.58948,6.36639 12.35399,9.20834 l 2.05051,2.10798 0.005,17.02985 c 0.006,20.5707 0.0514,20.93868 2.95013,23.66376 1.57697,1.48251 2.39755,1.95606 4.85048,2.79919 l 2.11667,0.72755 -44.58229,-0.009 c -40.26039,-0.008 -44.40297,-0.0471 -42.73251,-0.40496 z m 127.796043,0.0358 c -9.621263,-2.12413 -16.341033,-8.15536 -28.439623,-25.52553 -13.75738,-19.75172 -22.46485,-27.68649 -38.10308,-34.7218 l -0.92604,-0.41661 3.30729,-1.59415 c 9.59975,-4.62721 17.1664,-4.71188 28.17812,-0.31535 14.29507,5.70744 24.56875,14.5898 41.626983,35.98958 13.63569,17.10616 18.60546,22.07019 25.57021,25.54071 l 2.90346,1.44679 -16.26491,-0.0266 c -12.44377,-0.0203 -16.63787,-0.1089 -17.85241,-0.37705 z m 25.1856,-0.82501 c -0.0937,-0.0937 -0.79812,-0.42674 -1.56545,-0.74018 -6.99815,-2.85852 -14.55871,-9.66233 -28.113613,-25.29964 -20.0446,-23.12401 -30.8267,-31.40809 -44.58674,-34.2568 -1.95738,-0.40523 -8.19447,-0.86145 -7.93749,-0.5806 0.0728,0.0795 1.22376,0.58083 2.55778,1.11402 9.60815,3.84022 17.44477,10.69692 32.5133,28.44773 16.73592,19.71498 28.646983,27.99887 44.511263,30.95663 1.41392,0.26361 2.62037,0.49051 2.681,0.50422 0.0606,0.0137 0.0336,-0.0517 -0.0601,-0.14538 z m -90.144713,-96.59722 c -0.004,-23.34496 -0.0229,-23.72323 -1.30257,-26.2315 -0.69933,-1.37079 -3.1821,-3.58799 -4.64214,-4.14558 -0.65732,-0.25104 -1.19513,-0.55932 -1.19513,-0.68507 0,-0.12581 6.84212,-0.22863 15.21355,-0.22863 8.36744,0 15.21353,0.0899 15.21353,0.19978 0,0.10988 -0.72468,0.48079 -1.6104,0.82423 -1.93911,0.75191 -4.5708,3.09438 -5.59142,4.97692 -1.42307,2.62488 -1.52943,4.00703 -1.52943,19.87503 0,16.26001 0.0252,16.00843 -1.84674,18.43483 -1.70156,2.20554 -6.7236,5.8585 -11.07172,8.05343 l -1.63362,0.82464 z"
       id="path1-1"
       inkscape:export-filename="Documents\Contas\public\logo_black.png"
       inkscape:export-xdpi="96"
       inkscape:export-ydpi="96" /><path
       style="fill:#ffffff;fill-opacity:1;stroke:none;stroke-opacity:1"
       d="m -224.30218,436.59046 c 6.40763,-1.37278 11.30163,-5.28803 13.01043,-10.40848 0.69837,-2.0927 0.90552,-103.51464 0.21858,-107.02394 -1.00994,-5.15938 -3.9525,-8.4482 -9.26497,-10.35521 l -2.10965,-0.75729 8.68431,-0.0698 c 4.77637,-0.0384 12.51543,-0.0384 17.19792,0 l 8.5136,0.0698 -1.32291,0.64836 c -2.97943,1.46023 -4.78567,4.13127 -5.41462,8.00705 -0.30395,1.873 -0.39425,61.85604 -0.0931,61.85604 2.06589,0 27.20056,-9.18334 32.73871,-11.9616 21.97664,-11.02476 43.07965,-33.42634 51.51487,-54.68485 l 1.53361,-3.865 11.405226,-0.069 c 7.63359,-0.0462 11.35058,0.0195 11.23997,0.19843 -0.0909,0.14708 -0.32154,0.26741 -0.51255,0.26741 -1.60683,0 -9.23487,4.17373 -13.136386,7.18765 -5.37239,4.15017 -7.78688,6.8194 -15.51697,17.15401 -17.52653,23.43184 -29.52936,33.48614 -51.00458,42.72459 -10.07864,4.33574 -18.77148,8.83798 -25.62145,13.27001 l -2.80806,1.81686 0.0596,20.98108 0.0596,20.98109 9.65729,-0.0188 c 13.72972,-0.0267 16.58322,-0.69168 20.58025,-4.79622 3.17674,-3.26219 3.22214,-3.64046 3.22765,-26.89459 0.002,-10.6594 0.071,-19.38073 0.15218,-19.38073 1.04829,0 9.58947,6.36639 12.35398,9.20834 l 2.05051,2.10798 0.005,17.02985 c 0.006,20.5707 0.0514,20.93868 2.95013,23.66376 1.57697,1.48251 2.39755,1.95606 4.85048,2.79919 l 2.11667,0.72755 -44.58229,-0.009 c -40.26038,-0.008 -44.40296,-0.0471 -42.73251,-0.40496 z m 127.796046,0.0358 c -9.621266,-2.12413 -16.341036,-8.15536 -28.439626,-25.52553 -13.75738,-19.75172 -22.46485,-27.68649 -38.10307,-34.7218 l -0.92604,-0.41661 3.30729,-1.59415 c 9.59974,-4.62721 17.16639,-4.71188 28.17811,-0.31535 14.29507,5.70744 24.56875,14.5898 41.626986,35.98958 13.63569,17.10616 18.60546,22.07019 25.57021,25.54071 l 2.90346,1.44679 -16.26491,-0.0266 c -12.44377,-0.0203 -16.63787,-0.1089 -17.85241,-0.37705 z m 25.1856,-0.82501 c -0.0937,-0.0937 -0.79812,-0.42674 -1.56545,-0.74018 -6.99815,-2.85852 -14.55871,-9.66233 -28.113606,-25.29964 -20.04461,-23.12401 -30.82671,-31.40809 -44.58675,-34.2568 -1.95738,-0.40523 -8.19447,-0.86145 -7.93749,-0.5806 0.0728,0.0795 1.22376,0.58083 2.55778,1.11402 9.60815,3.84022 17.44478,10.69692 32.5133,28.44773 16.73593,19.71498 28.646986,27.99887 44.511266,30.95663 1.41392,0.26361 2.62037,0.49051 2.681,0.50422 0.0606,0.0137 0.0336,-0.0517 -0.0601,-0.14538 z m -90.144706,-96.59722 c -0.004,-23.34496 -0.023,-23.72323 -1.30258,-26.2315 -0.69933,-1.37079 -3.18208,-3.58799 -4.64213,-4.14558 -0.65732,-0.25104 -1.19513,-0.55932 -1.19513,-0.68507 0,-0.12581 6.84212,-0.22863 15.21354,-0.22863 8.36744,0 15.21353,0.0899 15.21353,0.19978 0,0.10988 -0.72468,0.48079 -1.6104,0.82423 -1.93911,0.75191 -4.5708,3.09438 -5.59142,4.97692 -1.42307,2.62488 -1.52943,4.00703 -1.52943,19.87503 0,16.26001 0.0252,16.00843 -1.84674,18.43483 -1.70156,2.20554 -6.7236,5.8585 -11.07172,8.05343 l -1.63361,0.82464 z"
       id="path1-1-8"
       inkscape:export-filename="Documents\Contas\public\logo_branca.png"
       inkscape:export-xdpi="96"
       inkscape:export-ydpi="96" /><path
       style="fill:#b3b3b3;fill-opacity:1;stroke:none;stroke-opacity:1"
       d="m -224.30219,588.64528 c 6.40763,-1.37278 11.30163,-5.28803 13.01043,-10.40848 0.69837,-2.0927 0.90552,-103.51464 0.21858,-107.02394 -1.00994,-5.15938 -3.9525,-8.4482 -9.26497,-10.35521 l -2.10965,-0.75729 8.68431,-0.0698 c 4.77637,-0.0384 12.51543,-0.0384 17.19792,0 l 8.5136,0.0698 -1.32291,0.64836 c -2.97943,1.46023 -4.78567,4.13127 -5.41462,8.00705 -0.30395,1.873 -0.39425,61.85604 -0.0931,61.85604 2.06589,0 27.20056,-9.18334 32.73871,-11.9616 21.97664,-11.02476 43.07965,-33.42634 51.51487,-54.68485 l 1.53361,-3.865 11.405238,-0.069 c 7.63359,-0.0462 11.35058,0.0195 11.23997,0.19843 -0.0909,0.14708 -0.32154,0.26741 -0.51255,0.26741 -1.60683,0 -9.23487,4.17373 -13.136398,7.18765 -5.37239,4.15017 -7.78688,6.8194 -15.51697,17.15401 -17.52653,23.43184 -29.52936,33.48614 -51.00458,42.72459 -10.07864,4.33574 -18.77148,8.83798 -25.62145,13.27001 l -2.80806,1.81686 0.0596,20.98108 0.0596,20.98109 9.65729,-0.0188 c 13.72972,-0.0267 16.58322,-0.69168 20.58025,-4.79622 3.17674,-3.26219 3.22214,-3.64046 3.22765,-26.89459 0.002,-10.6594 0.071,-19.38073 0.15218,-19.38073 1.04829,0 9.58947,6.36639 12.35398,9.20834 l 2.05051,2.10798 0.005,17.02985 c 0.006,20.5707 0.0514,20.93868 2.95013,23.66376 1.57697,1.48251 2.39755,1.95606 4.85048,2.79919 l 2.11667,0.72755 -44.58229,-0.009 c -40.26038,-0.008 -44.40296,-0.0471 -42.73251,-0.40496 z m 127.796058,0.0358 c -9.621278,-2.12413 -16.341048,-8.15536 -28.439638,-25.52553 -13.75738,-19.75172 -22.46485,-27.68649 -38.10307,-34.7218 l -0.92604,-0.41661 3.30729,-1.59415 c 9.59974,-4.62721 17.16639,-4.71188 28.17811,-0.31535 14.29507,5.70744 24.56875,14.5898 41.626998,35.98958 13.63569,17.10616 18.60546,22.07019 25.57021,25.54071 l 2.90346,1.44679 -16.26491,-0.0266 c -12.44377,-0.0203 -16.63787,-0.1089 -17.85241,-0.37705 z m 25.1856,-0.82501 c -0.0937,-0.0937 -0.79812,-0.42674 -1.56545,-0.74018 -6.99815,-2.85852 -14.55871,-9.66233 -28.113618,-25.29964 -20.04461,-23.12401 -30.82671,-31.40809 -44.58675,-34.2568 -1.95738,-0.40523 -8.19447,-0.86145 -7.93749,-0.5806 0.0728,0.0795 1.22376,0.58083 2.55778,1.11402 9.60815,3.84022 17.44477,10.69692 32.5133,28.44773 16.73592,19.71498 28.646998,27.99887 44.511278,30.95663 1.41392,0.26361 2.62037,0.49051 2.681,0.50422 0.0606,0.0137 0.0336,-0.0517 -0.0601,-0.14538 z m -90.144718,-96.59722 c -0.004,-23.34496 -0.023,-23.72323 -1.30258,-26.2315 -0.69933,-1.37079 -3.18209,-3.58799 -4.64213,-4.14558 -0.65732,-0.25104 -1.19513,-0.55932 -1.19513,-0.68507 0,-0.12581 6.84212,-0.22863 15.21354,-0.22863 8.36744,0 15.21353,0.0899 15.21353,0.19978 0,0.10988 -0.72468,0.48079 -1.6104,0.82423 -1.93911,0.75191 -4.5708,3.09438 -5.59142,4.97692 -1.42307,2.62488 -1.52943,4.00703 -1.52943,19.87503 0,16.26001 0.0252,16.00843 -1.84674,18.43483 -1.70156,2.20554 -6.7236,5.8585 -11.07172,8.05343 l -1.63361,0.82464 z"
       id="path1-1-8-1"
       inkscape:export-filename="Documents\Contas\public\logo_white.png"
       inkscape:export-xdpi="96"
       inkscape:export-ydpi="96" /></g></svg>
